HIERARCHY
ROOT Hips
{
	OFFSET 0.000000 0.000000 0.000000
	CHANNELS 6 Xposition Yposition Zposition Zrotation Yrotation Xrotation 
	JOINT LHipJoint
	{
		OFFSET 0.000000 0.000000 0.000000
		CHANNELS 3 Zrotation Yrotation Xrotation
		JOINT LeftUpLeg
		{
			OFFSET 1.363060 -1.794630 0.839290
			CHANNELS 3 Zrotation Yrotation Xrotation
			JOINT LeftLeg
			{
				OFFSET 2.448110 -6.726130 0.000000
				CHANNELS 3 Zrotation Yrotation Xrotation
				JOINT LeftFoot
				{
					OFFSET 2.562200 -7.039590 0.000000
					CHANNELS 3 Zrotation Yrotation Xrotation
					JOINT LeftToeBase
					{
						OFFSET 0.157640 -0.433110 2.322550
						CHANNELS 3 Zrotation Yrotation Xrotation
						End Site
						{
							OFFSET 0.000000 0.000000 0.000000
						}
					}
				}
			}
		}
	}
	JOINT RHipJoint
	{
		OFFSET 0.000000 0.000000 0.000000
		CHANNELS 3 Zrotation Yrotation Xrotation
		JOINT RightUpLeg
		{
			OFFSET -1.305520 -1.794630 0.839290
			CHANNELS 3 Zrotation Yrotation Xrotation
			JOINT RightLeg
			{
				OFFSET -2.542530 -6.985550 0.000000
				CHANNELS 3 Zrotation Yrotation Xrotation
				JOINT RightFoot
				{
					OFFSET -2.568260 -7.056230 0.000000
					CHANNELS 3 Zrotation Yrotation Xrotation
					JOINT RightToeBase
					{
						OFFSET -0.164730 -0.452590 2.363150
						CHANNELS 3 Zrotation Yrotation Xrotation
						End Site
						{
							OFFSET 0.000000 0.000000 0.000000
						}
					}
				}
			}
		}
	}
	JOINT LowerBack
	{
		OFFSET 0.000000 0.000000 0.000000
		CHANNELS 3 Zrotation Yrotation Xrotation
		JOINT Spine
		{
			OFFSET 0.028270 2.035590 -0.193380
			CHANNELS 3 Zrotation Yrotation Xrotation
			JOINT Spine1
			{
				OFFSET 0.056720 2.048850 -0.042750
				CHANNELS 3 Zrotation Yrotation Xrotation
				JOINT Neck
				{
					OFFSET 0.000000 0.000000 0.000000
					CHANNELS 3 Zrotation Yrotation Xrotation
					JOINT Neck1
					{
						OFFSET -0.054170 1.746240 0.172020
						CHANNELS 3 Zrotation Yrotation Xrotation
						JOINT Head
						{
							OFFSET 0.104070 1.761360 -0.123970
							CHANNELS 3 Zrotation Yrotation Xrotation
							End Site
							{
								OFFSET 0.000000 0.000000 0.000000
							}
						}
					}
				}
				JOINT LeftShoulder
				{
					OFFSET 0.000000 0.000000 0.000000
					CHANNELS 3 Zrotation Yrotation Xrotation
					JOINT LeftArm
					{
						OFFSET 3.362410 1.200890 -0.311210
						CHANNELS 3 Zrotation Yrotation Xrotation
						JOINT LeftForeArm
						{
							OFFSET 4.983000 -0.000000 -0.000000
							CHANNELS 3 Zrotation Yrotation Xrotation
							JOINT LeftHand
							{
								OFFSET 3.483560 -0.000000 -0.000000
								CHANNELS 3 Zrotation Yrotation Xrotation
								JOINT LeftFingerBase
								{
									OFFSET 0.000000 0.000000 0.000000
									CHANNELS 3 Zrotation Yrotation Xrotation
									JOINT LeftHandIndex1
									{
										OFFSET 0.715260 -0.000000 -0.000000
										CHANNELS 3 Zrotation Yrotation Xrotation
										End Site
										{
											OFFSET 0.000000 0.000000 0.000000
										}
									}
								}
								JOINT LThumb
								{
									OFFSET 0.000000 0.000000 0.000000
									CHANNELS 3 Zrotation Yrotation Xrotation
									End Site
									{
										OFFSET 0.000000 0.000000 0.000000
									}
								}
							}
						}
					}
				}
				JOINT RightShoulder
				{
					OFFSET 0.000000 0.000000 0.000000
					CHANNELS 3 Zrotation Yrotation Xrotation
					JOINT RightArm
					{
						OFFSET -3.136600 1.374050 -0.404650
						CHANNELS 3 Zrotation Yrotation Xrotation
						JOINT RightForeArm
						{
							OFFSET -5.241900 -0.000000 -0.000000
							CHANNELS 3 Zrotation Yrotation Xrotation
							JOINT RightHand
							{
								OFFSET -3.444170 -0.000000 -0.000000
								CHANNELS 3 Zrotation Yrotation Xrotation
								JOINT RightFingerBase
								{
									OFFSET 0.000000 0.000000 0.000000
									CHANNELS 3 Zrotation Yrotation Xrotation
									JOINT RightHandIndex1
									{
										OFFSET -0.622530 -0.000000 -0.000000
										CHANNELS 3 Zrotation Yrotation Xrotation
										End Site
										{
											OFFSET 0.000000 0.000000 0.000000
										}
									}
								}
								JOINT RThumb
								{
									OFFSET 0.000000 0.000000 0.000000
									CHANNELS 3 Zrotation Yrotation Xrotation
									End Site
									{
										OFFSET 0.000000 0.000000 0.000000
									}
								}
							}
						}
					}
				}
			}
		}
	}
}
MOTION
Frames: 10
Frame Time: 0.008333
8.395522 15.839631 -12.792659 -40.348892 13.352293 93.309741 1.257863 -3.489963 -6.196931 31.118751 15.966293 -71.370580 7.320212 11.353446 43.197910 3.961359 -15.171873 -10.901825 6.051600 14.478200 45.188500 -0.296724 2.879199 -2.398016 15.731420 -3.595759 4.484142 0.531262 -5.786759 12.868950 3.563033 -37.519714 15.393448 -1.692200 -8.193100 23.302300 -4.119686 -1.186627 17.475677 -1.269031 -2.408994 -5.056162 -9.419884 -1.143462 -4.691585 2.786741 -2.825435 -8.459769 0.940061 -4.242986 -28.817588 -0.507600 -2.604700 -11.407800 2.207843 -9.563429 3.265369 28.849623 -38.724546 -65.029694 15.166870 -24.903068 -4.171502 -0.892470 0.110804 -21.088158 62.434163 -20.001192 -34.582600 -7.125000 0.000000 0.000000 20.310000 -7.387600 -24.232000 -4.282000 11.404207 5.276718 -49.276802 15.361992 -68.716539 -23.996202 38.589274 -10.944701 1.655911 4.914683 -8.465720 -36.108648 -37.639233 27.995100 7.125000 0.000000 0.000000 -3.893300 -78.818300 3.065100 
8.373089 15.904112 -12.418049 -41.115015 15.276735 94.713957 1.457561 -3.428006 -6.358536 34.054925 16.113711 -68.109842 6.365448 10.379824 39.111154 3.705257 -12.632524 -11.003228 5.833800 14.265300 44.311100 -0.345188 2.811409 -2.351298 15.081584 -3.498133 5.816454 0.548095 -5.908963 13.231541 4.357659 -38.912631 13.223972 -2.189700 -9.250500 26.582200 -3.919687 -1.395609 16.746635 -1.166693 -2.563237 -5.115221 -9.125999 -1.236871 -4.453143 2.640504 -3.259807 -8.589427 0.969897 -4.997291 -29.483580 -0.376500 -2.892300 -11.687000 2.196319 -9.528899 3.145422 27.769388 -37.490407 -63.315393 16.924877 -26.944847 -5.012564 -0.790872 0.119822 -22.681404 63.912625 -22.200032 -38.937300 -7.125000 0.000000 0.000000 20.390400 -11.750400 -25.605900 -4.264110 11.359581 5.315377 -50.255547 15.937446 -70.170298 -23.928592 38.734319 -10.881916 1.858781 4.684922 -5.598120 -36.580877 -37.126388 28.065700 7.125000 0.000000 0.000000 -5.648900 -78.349500 4.394000 
8.347740 15.976438 -12.049374 -41.762459 17.485287 96.274136 1.697851 -3.366828 -6.522616 37.561806 16.036107 -64.518598 5.370999 9.221560 34.501636 3.373574 -9.979793 -11.433787 5.640600 14.070800 43.521700 -0.376089 2.711271 -2.255674 14.749751 -2.950124 7.040330 0.646435 -5.969487 13.401089 5.837090 -40.438007 7.836323 -3.846500 -11.953300 35.566900 -3.376693 -1.542919 15.827051 -1.054449 -2.595182 -5.231013 -9.171590 -1.284180 -4.273409 2.513658 -3.794093 -8.342908 1.306000 -5.837511 -30.150379 -0.121500 -3.257500 -12.068900 2.247022 -9.477951 3.201758 28.681478 -37.964173 -66.155921 17.128173 -27.322119 -5.135016 -0.682396 0.157614 -19.881228 65.897798 -23.456985 -42.852600 -7.125000 0.000000 0.000000 21.030100 -15.222300 -27.424500 -4.304652 11.296774 5.263559 -50.844320 15.828473 -70.939383 -23.760592 38.685890 -10.744238 2.011392 4.544737 -3.244091 -36.813669 -36.961698 28.135700 7.125000 0.000000 0.000000 -6.326200 -78.217200 4.904300 
8.318065 16.063351 -11.668628 -42.284800 19.349742 97.724115 2.019463 -3.289239 -6.662670 41.021440 15.326392 -60.267786 4.336801 7.849436 29.290312 2.877572 -6.830178 -12.311462 5.622300 14.052000 43.446200 -0.486360 2.639548 -2.213927 14.043773 -3.392213 7.878470 0.553656 -6.171728 14.021232 5.649924 -40.852641 9.476647 -3.421700 -11.348200 33.463600 -3.380481 -1.441452 15.143385 -1.032058 -2.406942 -5.399912 -9.357480 -1.228550 -4.411878 2.008985 -4.348565 -7.820772 1.856030 -6.637809 -30.258786 0.273400 -3.579700 -12.207800 2.257923 -9.464611 3.281681 29.393180 -38.742149 -68.097981 17.404933 -27.799695 -5.294931 -0.567166 0.181073 -16.593724 67.613029 -24.143887 -45.874200 -7.125000 0.000000 0.000000 21.707100 -17.737600 -29.026500 -4.394037 11.217033 5.064338 -50.159761 13.732985 -68.721166 -24.176582 38.777081 -10.942526 2.042010 4.639057 -3.861717 -37.469576 -37.047393 28.829400 7.125000 0.000000 0.000000 -8.050300 -78.609300 6.308300 
8.282052 16.158211 -11.272391 -42.673733 21.122723 99.213346 2.354361 -3.205768 -6.820511 44.896277 13.779565 -55.292511 3.258603 6.229389 23.420147 1.880811 -2.105663 -14.147087 5.285700 13.698400 42.042700 -0.471190 2.530880 -2.065530 13.337475 -2.648980 9.264939 0.761385 -6.185212 14.098695 7.922931 -41.889621 -1.826298 -6.108500 -14.532700 45.415800 -3.655830 -1.685143 14.469670 -0.878258 -2.684884 -5.524189 -8.737854 -1.364541 -4.355805 1.380198 -4.758749 -7.588295 2.354095 -7.277228 -30.714393 0.687100 -3.779300 -12.425400 2.262787 -9.494513 3.224290 28.955561 -38.747409 -69.786443 17.919538 -28.412487 -5.598918 -0.446208 0.204645 -12.796757 68.162953 -24.494598 -46.921900 -7.125000 0.000000 0.000000 21.842700 -18.681100 -29.440900 -4.375688 11.188879 5.106764 -51.203751 14.702819 -70.867847 -23.733235 38.647269 -10.641693 2.280797 4.347352 -0.234521 -38.055254 -36.471411 28.950500 7.125000 0.000000 0.000000 -9.991800 -78.083400 7.726200 
8.240407 16.256289 -10.877160 -42.693321 23.283185 100.753739 2.851077 -3.161213 -6.917402 49.844128 10.776919 -49.430470 2.388773 4.249604 16.713985 1.608419 0.146193 -17.233215 6.636500 15.018000 47.485800 -0.768236 2.455057 -2.127601 13.199620 -3.854370 10.094901 0.557130 -6.268672 14.351207 6.390120 -42.214920 7.799619 -3.696500 -11.745200 34.836400 -3.314062 -1.876096 13.692882 -0.748219 -2.833779 -5.612215 -8.345947 -1.390363 -3.913990 -4.429544 -5.306389 -9.594591 6.304023 -7.234963 -28.673628 3.269700 -3.281800 -10.443800 2.235961 -9.717084 3.319328 30.953560 -39.635064 -74.731794 17.454268 -28.041951 -5.380116 -0.357553 0.215719 -7.780722 69.040904 -24.766130 -48.401800 -7.125000 0.000000 0.000000 22.217300 -19.872300 -30.267500 -4.501314 10.824358 5.040153 -52.026220 15.710271 -72.953401 -23.386364 38.562524 -10.430444 2.479961 4.075607 3.391877 -38.434325 -36.176259 29.028600 7.125000 0.000000 0.000000 -11.047800 -77.793500 8.480000 
8.196850 16.358090 -10.482633 -42.484933 25.555469 102.335307 3.485364 -3.059531 -7.066626 56.144436 4.827089 -42.378546 1.820641 1.967301 9.306548 2.448983 0.519415 -23.897945 7.806800 15.975300 51.863800 -1.017064 2.348029 -2.115521 13.190492 -4.781363 11.131170 0.454971 -6.296839 14.442267 5.192535 -41.830299 12.990684 -2.284400 -9.434800 27.165200 -2.584996 -1.911139 12.845192 -0.792617 -2.744337 -5.659729 -9.037420 -1.359845 -3.482788 -6.077392 -6.323770 -8.762511 8.029217 -8.533090 -28.447120 4.378200 -3.794400 -10.294600 2.268862 -9.651516 3.668108 35.270000 -41.149793 -81.012668 16.551665 -27.375070 -4.890133 -0.300326 0.193615 -2.952085 70.131593 -25.191152 -50.357100 -7.125000 0.000000 0.000000 22.714000 -21.441700 -31.352400 -4.599888 10.623938 4.993229 -51.480621 15.916351 -73.752478 -23.244928 38.344039 -10.353528 2.681617 3.908973 6.329052 -38.720118 -36.244828 29.288500 7.125000 0.000000 0.000000 -11.744100 -77.924200 9.048500 
8.153192 16.460896 -10.084685 -41.899701 27.562432 103.836806 4.247509 -2.500398 -7.778117 64.217951 -8.525567 -34.168703 1.835548 -0.421599 1.272781 7.323248 -4.856888 -38.079572 8.671500 16.591600 54.947100 -1.241955 2.049434 -1.849428 13.094966 -4.967462 12.534564 0.496246 -6.110025 13.938823 5.148331 -42.239171 13.684843 -2.144800 -9.161400 26.301600 -1.963571 -2.122566 12.255883 -0.826247 -2.876159 -5.697297 -9.886417 -1.471857 -3.026322 -5.548407 -6.840750 -8.811826 7.489211 -9.374029 -28.085824 4.091200 -4.195100 -10.213800 2.403521 -9.444351 4.169334 41.352462 -42.139632 -89.352557 14.802903 -25.848086 -3.991665 -0.307785 0.175868 2.846031 70.910516 -25.951707 -52.208200 -7.125000 0.000000 0.000000 22.995600 -23.068200 -32.094800 -4.731748 10.478306 4.831290 -50.854706 15.125965 -73.896301 -22.907291 37.883571 -10.120864 2.835207 3.865996 7.787135 -38.970756 -36.259286 29.564300 7.125000 0.000000 0.000000 -12.501700 -78.059300 9.669800 
8.111547 16.562596 -9.691265 -41.301372 30.084430 106.221759 3.131238 -2.616956 -6.033675 26.665131 31.868248 -61.227581 0.771705 -0.324227 3.687022 -3.368964 13.569245 5.019548 9.582100 17.168100 58.082300 -0.978570 2.322689 -2.348842 13.046452 -5.186112 13.805133 0.575547 -5.965210 13.384391 5.290428 -42.862641 13.630861 -2.092000 -9.055100 25.967900 -0.947695 -2.418969 10.882461 -0.761866 -3.160645 -5.772902 -10.416057 -1.678158 -2.924126 -0.008700 -7.351131 -7.181604 4.716803 -10.775456 -29.779808 2.224300 -5.296000 -12.035400 2.622809 -9.012848 4.482565 45.571191 -42.064839 -94.323643 13.457533 -24.665172 -3.313662 -0.346334 0.168098 6.588050 71.560664 -26.650754 -53.829900 -7.125000 0.000000 0.000000 23.236900 -24.496100 -32.717600 -4.702533 10.703391 4.827457 -50.576930 14.788799 -74.556823 -22.367811 37.310157 -9.754242 3.004944 3.772767 9.591764 -39.357725 -36.183798 29.898700 7.125000 0.000000 0.000000 -13.686200 -78.118300 10.608000 
8.072617 16.665000 -9.308205 -40.066003 32.250581 108.073619 2.554514 -1.572387 -6.597728 -38.996243 31.890709 -119.783733 0.024654 2.898160 6.660072 3.656981 41.446248 51.571222 10.007100 17.413900 59.512100 -0.831799 1.979558 -1.981012 13.137958 -4.936976 15.141077 0.634163 -5.789761 12.818462 5.185779 -42.944190 14.077085 -1.815100 -8.469800 24.150400 -0.048888 -2.680196 10.431050 -0.703785 -3.396362 -5.845435 -10.988821 -1.899635 -2.863625 -0.284432 -7.919832 -7.080752 5.235278 -11.569219 -29.502331 2.520300 -5.660300 -11.862100 2.652029 -9.032739 4.582183 46.646580 -41.806274 -93.281600 13.533362 -24.932761 -3.313720 -0.338902 0.147624 6.656479 71.957973 -26.673546 -54.432300 -7.125000 0.000000 0.000000 23.477200 -24.913100 -33.166800 -4.803828 10.565152 4.607398 -49.007382 12.020966 -71.244076 -22.822850 37.244190 -9.977264 2.985287 4.061825 6.888199 -39.615422 -36.405809 30.423300 7.125000 0.000000 0.000000 -14.625800 -78.604000 11.486100 
